<?xml version="1.0" encoding="UTF-8" standalone="no"?>
<!DOCTYPE svg PUBLIC "-//W3C//DTD SVG 1.1//EN" "http://www.w3.org/Graphics/SVG/1.1/DTD/svg11.dtd">
<svg width="100%" height="100%" viewBox="0 0 356 356" version="1.1" xmlns="http://www.w3.org/2000/svg" xmlns:xlink="http://www.w3.org/1999/xlink" xml:space="preserve" xmlns:serif="http://www.serif.com/" style="fill-rule:evenodd;clip-rule:evenodd;stroke-linejoin:round;stroke-miterlimit:2;">
    <g transform="matrix(1,0,0,1,-138.905,-612.813)">
        <g>
            <g transform="matrix(1,0,0,1,0,2)">
                <path d="M494.247,788.484C494.247,886.543 414.635,966.154 316.576,966.154C218.517,966.154 138.905,886.543 138.905,788.484C138.905,690.425 218.517,610.813 316.576,610.813C414.635,610.813 494.247,690.425 494.247,788.484Z" style="fill:white;"/>
            </g>
            <g transform="matrix(1,0,0,1,40.2586,510.262)">
                <path d="M265.684,333.015C264.734,332.533 264.135,331.558 264.135,330.492C264.134,317.647 264.134,237.704 264.134,237.704C264.134,235.31 263.405,233.436 261.948,232.083C260.491,230.73 258.045,230.053 254.61,230.053L254.61,225.057C257.004,223.391 259.866,221.908 263.197,220.607C266.528,219.306 269.885,218.239 273.268,217.406C276.651,216.573 279.436,216.157 281.621,216.157C284.12,216.157 285.889,216.704 286.93,217.797C287.971,218.89 288.492,220.737 288.492,223.339L288.492,245.511L288.023,260.344C290.105,258.158 292.603,256.597 295.518,255.66C298.432,254.723 301.659,254.255 305.198,254.255C310.923,254.255 316.284,255.712 321.28,258.627C326.277,261.541 330.336,265.939 333.459,271.82C336.582,277.701 338.143,285.222 338.143,294.382C338.143,304.375 336.218,312.78 332.366,319.598C328.515,326.416 323.362,331.569 316.909,335.056C310.455,338.543 303.325,340.287 295.518,340.287C280.827,340.19 272.989,336.717 265.684,333.015ZM295.986,328.889C298.797,328.889 301.373,327.978 303.715,326.156C306.057,324.335 307.905,321.29 309.258,317.022C310.611,312.754 311.288,306.977 311.288,299.691C311.288,288.241 309.674,280.017 306.447,275.021C303.221,270.025 299.213,267.526 294.425,267.526C292.135,267.526 290.157,268.099 288.492,269.244L288.492,325.922C290.469,327.9 292.967,328.889 295.986,328.889Z"/>
                <g transform="matrix(1,0,0,1,-0.147098,-9)">
                    <path d="M385.297,339.974C373.639,339.974 364.348,336.279 357.426,328.889C350.504,321.498 347.043,311.193 347.043,297.973C347.043,288.917 348.761,281.084 352.196,274.475C355.631,267.865 360.289,262.79 366.17,259.251C372.051,255.712 378.739,253.942 386.234,253.942C395.602,253.942 403.123,256.675 408.796,262.14C414.469,267.604 417.305,275.281 417.305,285.17C417.305,289.125 416.655,292.587 415.353,295.553C414.052,298.52 411.372,300.003 407.312,300.003L373.587,300.003C373.899,308.226 375.799,314.055 379.286,317.491C382.773,320.926 387.327,322.643 392.948,322.643C396.487,322.643 399.766,322.097 402.784,321.004C405.803,319.911 408.613,318.375 411.216,316.398C412.153,317.23 412.907,318.505 413.48,320.223C414.052,321.94 414.339,323.372 414.339,324.517C414.339,326.182 413.168,328.238 410.825,330.684C408.483,333.13 405.152,335.29 400.833,337.164C396.513,339.038 391.334,339.974 385.297,339.974ZM373.587,288.137L389.357,288.137C391.126,288.137 392.245,287.46 392.713,286.107C393.182,284.754 393.416,283.088 393.416,281.11C393.416,274.449 392.609,270.051 390.996,267.917C389.383,265.783 387.483,264.716 385.297,264.716C383.527,264.716 381.758,265.393 379.988,266.746C378.219,268.099 376.761,270.467 375.616,273.85C374.471,277.233 373.795,281.995 373.587,288.137Z" style="fill-rule:nonzero;"/>
                </g>
                <path d="M173.73,339.974C162.072,339.974 152.782,336.279 145.86,328.889C138.938,321.498 135.477,311.193 135.477,297.973C135.477,288.917 137.194,281.084 140.629,274.475C144.064,267.865 148.722,262.79 154.603,259.251C160.485,255.712 167.172,253.942 174.667,253.942C184.035,253.942 191.556,256.675 197.229,262.14C202.902,267.604 205.738,275.281 205.738,285.17C205.738,289.125 205.088,292.587 203.787,295.553C202.486,298.52 199.805,300.003 195.746,300.003L162.02,300.003C162.332,308.226 164.232,314.055 167.719,317.491C171.206,320.926 175.76,322.643 181.381,322.643C184.92,322.643 188.199,322.097 191.218,321.004C194.236,319.911 197.047,318.375 199.649,316.398C200.586,317.23 201.341,318.505 201.913,320.223C202.486,321.94 202.772,323.372 202.772,324.517C202.772,326.182 201.601,328.238 199.259,330.684C196.917,333.13 193.586,335.29 189.266,337.164C184.946,339.038 179.768,339.974 173.73,339.974ZM162.02,288.137L177.79,288.137C179.559,288.137 180.678,287.46 181.147,286.107C181.615,284.754 181.849,283.088 181.849,281.11C181.849,274.449 181.043,270.051 179.429,267.917C177.816,265.783 175.916,264.716 173.73,264.716C171.961,264.716 170.191,265.393 168.422,266.746C166.652,268.099 165.195,270.467 164.05,273.85C162.905,277.233 162.228,281.995 162.02,288.137Z" style="fill-rule:nonzero;"/>
                <path d="M222.857,324.734C222.205,324.828 221.544,324.635 221.046,324.204C220.548,323.772 220.262,323.146 220.262,322.487C220.259,307.937 220.259,238.641 220.259,238.641C220.259,236.247 219.583,234.347 218.23,232.942C216.876,231.537 214.014,230.834 209.642,230.834L209.642,224.589C212.244,223.131 215.289,221.856 218.776,220.763C222.263,219.67 225.724,218.785 229.159,218.109C232.594,217.432 235.457,217.094 237.747,217.094C240.141,217.094 241.884,217.614 242.977,218.655C244.07,219.696 244.617,221.518 244.617,224.12L244.617,322.62C244.617,323.229 244.354,323.807 243.895,324.206C243.437,324.606 242.828,324.788 242.226,324.705C239.34,324.33 236.129,324.12 232.497,324.122C228.893,324.125 225.711,324.346 222.857,324.734Z"/>
            </g>
        </g>
    </g>
</svg>
